<?xml version="1.0" encoding="utf-8"?>
<!-- Generator: Adobe Illustrator 28.0.0, SVG Export Plug-In . SVG Version: 6.00 Build 0)  -->
<svg version="1.1" id="Layer_1" xmlns="http://www.w3.org/2000/svg" xmlns:xlink="http://www.w3.org/1999/xlink" x="0px" y="0px"
	 viewBox="0 0 225.78 54.44" style="enable-background:new 0 0 225.78 54.44;" xml:space="preserve">
<style type="text/css">
	.st0{fill:#FFFFFF;}
	.st1{fill-rule:evenodd;clip-rule:evenodd;fill:#FFFFFF;}
	.st2{fill-rule:evenodd;clip-rule:evenodd;fill:#FFFFFF;}
	.st3{fill:#FFFFFF;}
</style>
<g>
	<path class="st0" d="M67.69,10.47h6.73V26.6c0,1.6-0.2,3.1-0.6,4.53c-0.4,1.42-1.03,2.66-1.89,3.73c-0.86,1.06-1.76,1.81-2.7,2.24
		c-1.31,0.6-2.88,0.9-4.72,0.9c-1.06,0-2.22-0.09-3.47-0.28c-1.25-0.18-2.3-0.55-3.14-1.1c-0.84-0.55-1.61-1.33-2.31-2.34
		c-0.7-1.01-1.18-2.05-1.44-3.12c-0.42-1.72-0.62-3.24-0.62-4.57V10.47h6.73v16.51c0,1.48,0.33,2.63,0.98,3.46
		c0.66,0.83,1.57,1.25,2.75,1.25c1.16,0,2.07-0.41,2.73-1.23c0.66-0.81,0.99-1.98,0.99-3.48V10.47L67.69,10.47z M78.92,10.47h6.29
		l8.21,14.96V10.47h6.35v27.05h-6.35l-8.17-14.85v14.85h-6.34V10.47L78.92,10.47z M104.51,10.47h6.75v27.05h-6.75V10.47
		L104.51,10.47z M116.13,10.47h16.66v5.81h-9.89V21h8.45v5.46h-8.45v11.05h-6.77V10.47L116.13,10.47z M136.4,10.47h18.05v5.77h-11.3
		v4.3h10.48v5.52h-10.48v5.33h11.63v6.13H136.4V10.47L136.4,10.47z M158.45,10.47h6.29l8.21,14.96V10.47h6.35v27.05h-6.35
		l-8.17-14.85v14.85h-6.34V10.47L158.45,10.47z M196.9,33.05h-7.68l-1.06,4.46h-6.88l8.19-27.05h7.35l8.2,27.05h-7.05L196.9,33.05
		L196.9,33.05z M195.49,27.2l-2.41-9.72l-2.4,9.72H195.49L195.49,27.2z M206,28.57l6.41-0.5c0.14,1.29,0.42,2.27,0.85,2.95
		c0.69,1.1,1.69,1.64,2.98,1.64c0.96,0,1.7-0.28,2.22-0.84c0.52-0.56,0.78-1.21,0.78-1.95c0-0.7-0.24-1.33-0.74-1.88
		c-0.5-0.55-1.64-1.08-3.45-1.57c-2.95-0.83-5.06-1.91-6.32-3.28c-1.27-1.37-1.9-3.1-1.9-5.22c0-1.39,0.32-2.71,0.97-3.94
		c0.65-1.23,1.62-2.2,2.93-2.92c1.3-0.71,3.09-1.06,5.36-1.06c2.79,0,4.91,0.64,6.38,1.93c1.46,1.28,2.33,3.33,2.61,6.13l-6.35,0.46
		c-0.17-1.22-0.52-2.1-1.07-2.66c-0.54-0.55-1.28-0.82-2.23-0.82c-0.79,0-1.38,0.2-1.77,0.62c-0.4,0.41-0.59,0.91-0.59,1.51
		c0,0.43,0.16,0.81,0.49,1.16c0.32,0.36,1.07,0.69,2.26,0.99c2.94,0.79,5.05,1.59,6.33,2.39c1.27,0.81,2.2,1.8,2.78,3
		c0.58,1.19,0.87,2.52,0.87,4c0,1.73-0.39,3.33-1.16,4.79c-0.77,1.47-1.85,2.58-3.24,3.33c-1.39,0.76-3.14,1.13-5.25,1.13
		c-3.71,0-6.27-0.88-7.7-2.66C207,33.55,206.19,31.3,206,28.57L206,28.57z"/>
	<path class="st1" d="M27.45,4.16c8.86,3.04,15.22,11.45,15.22,21.34c0,12.46-10.1,22.56-22.56,22.56c-7.89,0-14.84-4.06-18.87-10.2
		c4,4.67,9.93,7.64,16.56,7.64c12.03,0,21.79-9.76,21.79-21.79C39.6,15.14,34.65,7.72,27.45,4.16L27.45,4.16z"/>
	<path class="st1" d="M9.96,41.27c-7.77-5.23-11.74-15-9.18-24.55C4,4.69,16.37-2.45,28.4,0.77c7.63,2.04,13.28,7.76,15.59,14.74
		c-2.65-5.55-7.62-9.95-14.02-11.67C18.34,0.73,6.39,7.63,3.28,19.25C1.06,27.53,3.93,35.97,9.96,41.27L9.96,41.27z"/>
	<path class="st2" d="M22.33,5.28l5.91-3.25v7.6l-5.77,3.38h5.77l17.77,28.57h-6.23L28.24,23.42v8.18l-0.21,1.17l-0.31,1.09
		l-0.39,1.01l-0.47,0.94l-0.55,0.86l-0.61,0.79l-0.67,0.71l-0.73,0.63l-0.77,0.56l-0.82,0.49l-0.85,0.41l-0.88,0.33l-0.91,0.26
		l-0.93,0.18l-0.94,0.11l-0.95,0.03l-0.95-0.04l-0.94-0.12l-0.93-0.19l-0.91-0.27l-0.89-0.34l-0.86-0.42l-0.82-0.49l-0.78-0.56
		l-0.73-0.64L8.77,37.4l-0.62-0.79L7.6,35.75l-0.48-0.94l-0.4-1.01l-0.32-1.08l-0.22-1.16V14.28l5.93-3.37v19.56l0.04,0.63
		l0.09,0.59l0.14,0.55l0.18,0.51l0.23,0.47l0.27,0.42l0.3,0.38l0.33,0.34l0.36,0.3l0.38,0.26l0.41,0.22l0.42,0.17l0.44,0.13
		l0.45,0.09l0.46,0.05l0.46,0.01l0.46-0.03l0.46-0.07l0.46-0.11l0.45-0.15l0.44-0.19l0.42-0.22l0.4-0.26l0.38-0.3l0.35-0.34
		l0.32-0.38l0.29-0.42l0.25-0.46l0.21-0.5l0.17-0.53l0.12-0.57l0.08-0.61V5.28L22.33,5.28z M22.45,13.28h5.79v10.02L22.45,13.28
		L22.45,13.28z"/>
	<g>
		<g>
			<path class="st3" d="M62.48,54.44c-0.79,0-1.44-0.22-1.95-0.65c-0.51-0.43-0.77-1.06-0.77-1.88v-4.83h1v4.7
				c0,0.57,0.15,1.01,0.46,1.32c0.31,0.31,0.73,0.46,1.28,0.46c0.55,0,0.98-0.15,1.29-0.46c0.3-0.31,0.45-0.74,0.44-1.3v-4.71h1
				v4.76c0.01,0.81-0.24,1.44-0.74,1.9C63.98,54.21,63.31,54.44,62.48,54.44z"/>
			<path class="st3" d="M74.84,54.32v-7.25h0.97l3.54,5.54h0.04v-5.54h0.96v7.25h-0.99l-3.55-5.58h0v5.58H74.84z"/>
			<path class="st3" d="M90.01,54.32v-7.23h1v7.23H90.01z"/>
			<path class="st3" d="M102.38,54.36l-2.41-7.27h1l1.88,5.88l0.02-0.02l1.88-5.86h1.05l-2.45,7.27H102.38z"/>
			<path class="st3" d="M114.79,54.32v-7.25h4.77v0.88h-3.77v2.19h3.22v0.88h-3.22v2.41h3.8v0.88H114.79z"/>
			<path class="st3" d="M129.04,54.32v-7.23h2.64c0.71,0,1.28,0.19,1.72,0.58c0.44,0.39,0.67,0.92,0.67,1.62
				c0,0.5-0.14,0.94-0.42,1.32c-0.28,0.38-0.68,0.63-1.21,0.76l2,2.96h-1.11l-1.92-2.84h-1.39v2.84H129.04z M130.04,50.64h1.49
				c0.51,0,0.9-0.11,1.18-0.35c0.28-0.23,0.41-0.57,0.41-1.02c0-0.46-0.14-0.79-0.43-1.01c-0.28-0.22-0.68-0.33-1.19-0.33h-1.47
				V50.64z"/>
			<path class="st3" d="M145.88,54.44c-0.68,0-1.27-0.15-1.77-0.45c-0.5-0.3-0.83-0.74-1.01-1.31l0.91-0.34
				c0.14,0.39,0.38,0.7,0.72,0.91c0.34,0.21,0.73,0.32,1.19,0.32c0.47,0,0.85-0.11,1.16-0.31c0.31-0.21,0.46-0.5,0.46-0.87
				c0-0.31-0.09-0.56-0.28-0.74c-0.18-0.18-0.44-0.32-0.79-0.42l-1.32-0.35c-0.54-0.15-0.94-0.37-1.22-0.66
				c-0.28-0.29-0.42-0.7-0.42-1.23c0-0.61,0.22-1.1,0.68-1.47c0.45-0.37,1.02-0.55,1.69-0.55c0.6,0,1.12,0.12,1.56,0.36
				c0.44,0.24,0.75,0.6,0.92,1.07l-0.84,0.35c-0.3-0.62-0.86-0.93-1.65-0.94c-0.38,0-0.71,0.09-0.98,0.28
				c-0.28,0.19-0.41,0.46-0.41,0.82c0,0.52,0.39,0.89,1.17,1.11l1.34,0.36c1.03,0.28,1.53,0.92,1.51,1.93
				c0,0.64-0.24,1.16-0.72,1.55C147.29,54.25,146.66,54.44,145.88,54.44z"/>
			<path class="st3" d="M157.85,54.32v-7.23h1v7.23H157.85z"/>
			<path class="st3" d="M168.53,54.32v-7.23h2.73c0.78,0,1.42,0.22,1.93,0.67c0.51,0.45,0.76,1.06,0.76,1.82v2.19
				c0,0.78-0.26,1.4-0.78,1.86c-0.52,0.46-1.15,0.69-1.9,0.69H168.53z M169.52,53.44h1.69c0.5,0,0.92-0.15,1.24-0.43
				c0.33-0.29,0.49-0.68,0.49-1.17v-2.28c0-0.47-0.16-0.85-0.49-1.15c-0.32-0.29-0.75-0.44-1.28-0.44h-1.66V53.44z"/>
			<path class="st3" d="M182.87,54.32l2.59-7.25h1.04l2.54,7.25h-0.91l-0.67-1.92h-2.91l-0.68,1.92H182.87z M184.84,51.56h2.32
				l-1.14-3.29l-0.01,0L184.84,51.56z"/>
			<path class="st3" d="M198.27,54.32v-7.23h2.73c0.78,0,1.42,0.22,1.93,0.67c0.51,0.45,0.76,1.06,0.76,1.82v2.19
				c0,0.78-0.26,1.4-0.78,1.86c-0.52,0.46-1.15,0.69-1.9,0.69H198.27z M199.27,53.44h1.69c0.5,0,0.92-0.15,1.24-0.43
				c0.33-0.29,0.49-0.68,0.49-1.17v-2.28c0-0.47-0.16-0.85-0.49-1.15c-0.32-0.29-0.75-0.44-1.28-0.44h-1.66V53.44z"/>
			<path class="st3" d="M213.19,54.32v-7.25h4.77v0.88h-3.77v2.19h3.22v0.88h-3.22v2.41h3.8v0.88H213.19z"/>
		</g>
	</g>
</g>
</svg>
